<svg xmlns="http://www.w3.org/2000/svg" width="200" height="175" viewBox="0 0 200 175">
<defs><style>.a,.b{fill:#698abf;stroke:#698abf;stroke-width:4px;stroke-miterlimit:10}.b{fill:none;stroke:#fff;stroke-width:5.32px;opacity:.97}.c,.d{fill:#202020}.c{opacity:.3}.d{opacity:.6}</style></defs><path class="a" d="M72.1 132L49.5 87l22.6-45h53.7l24.7 45-24.7 45H72.1z"/><path class="b" d="M67.2 108.6l64.7-44.1"/><path class="c" d="M109 46h11v11h-11z"/><path class="d" d="M98 61h11v11H98zM126 76h11v11h-11z"/><path class="c" d="M115 91h11v11h-11z"/><path class="d" d="M98 99h11v11H98z"/><path class="c" d="M96 117h11v11H96zM77 51h11v11H77z"/><path class="d" d="M79 66h11v11H79z"/><path class="c" d="M66 81h11v11H66zM77 110h11v11H77z"/></svg>